<svg width="239" height="236" viewBox="0 0 239 236" fill="none" xmlns="http://www.w3.org/2000/svg">
<path d="M234.238 207.512V233.626H212.872C195.462 233.626 185.966 228.878 178.053 217.799L175.678 214.634C158.269 228.086 135.32 236 109.997 236C45.1067 236 0 186.936 0 118.881C0 50.8252 45.1067 1.76196 109.997 1.76196C174.887 1.76196 219.994 50.8252 219.994 118.881C219.994 149.743 210.498 175.858 194.671 196.433C201.002 204.346 206.541 207.512 216.037 207.512H234.238ZM159.852 192.476L153.521 183.771C147.19 175.858 141.651 171.901 133.737 171.901H113.954V145.787H137.694C153.521 145.787 161.434 150.535 169.348 161.613L176.47 171.11C185.175 156.865 189.923 137.873 189.923 118.09C189.923 65.0695 157.478 27.085 109.206 27.085C60.9336 27.085 28.4885 65.0695 28.4885 118.09C28.4885 171.11 60.9336 209.094 109.206 209.094C129.781 209.885 146.399 203.555 159.852 192.476Z" fill="#233137"/>
</svg>
